# xmcd CD database file
#
# Track frame offsets:
#	150
#	15812
#	28350
#	45166
#	63370
#	78056
#	94894
#	124845
#	134459
#	158467
#	176383
#	193031
#	208219
#	241396
#
# Disc length: 3489 seconds
#
# Revision: 2
# Processed by: cddbd v1.5.2PL0 Copyright (c) Steve Scherf et al.
# Submitted via: CDex 1.70beta3
#
DISCID=ac0d9f0e
DTITLE=矢野　沙織 - Answer
DYEAR=2012
DGENRE=Jazz
TTITLE0=The Days Of Wine And Roses
TTITLE1=All Of Me
TTITLE2=Moon River
TTITLE3=砂とスカート
TTITLE4=Moody's Mood For Love
TTITLE5=Theme From "Taxi Driver"
TTITLE6=A Night In Tunisia
TTITLE7=Sing Sing Sing?It Don't Mean A Thing (If It Ain't Got That Swing)
TTITLE8=Answer
TTITLE9=Waltz For Debby
TTITLE10=La Vie En Rose
TTITLE11=You'd Be So Nice To Come Home To
TTITLE12=Left Alone
TTITLE13=ウイスキーが、お好きでしょ
EXTD=YEAR: 2012
EXTT0=
EXTT1=
EXTT2=
EXTT3=
EXTT4=
EXTT5=
EXTT6=
EXTT7=
EXTT8=
EXTT9=
EXTT10=
EXTT11=
EXTT12=
EXTT13=
PLAYORDER=
